,
  Hottest scene tracker on the net !!!   http://www.scenetime.com
 
         Please seed back after your download is completed

           Credit goes  to all seeders and  http://www.scenetime.com
 



...................................NFO:.................................................                                                                                                     
       
     
     
       
       
     
     
                                         
                                         
                EXVID                    
                                         
         
                                         
         Filled the Archives             
                                         
         
                                         
                With:                    
                                         
         
                                         
                                    
     E240                           
                                    
     SP               (C) 2009      
                                         
     
     
     
                                                                                  
                                                                                   
             Knight.And.Day.2010.EXTENDED.DVDRip.XviD-EXViD                         
                                                                                   
                                                                                  
     
                                                                                               
EXViD aims to iNTERNAL those releases which have been lost in the archives.
EXViD aims to PRE non-internal releases which have poor sources and are likely skipped by others. 
http://www.imdb.com/title/tt1013743/
Subtitles: EN, FR, DE, NL, AR, TR
Date: 2010.12

Director:
James Mangold

Genres:
Action | Adventure | Comedy | Thriller

Plot:
June Havens finds her everyday life tangled with that of a secret agent who has realized he
isn't supposed to survive his latest mission. As their campaign to stay alive stretches
across the globe, they soon learn that all they can count on is each other.

Cast
Credited cast:
Tom Cruise  ...  Roy Miller  
Cameron Diaz  ...  June Havens  
Peter Sarsgaard  ...  Fitzgerald  
Jordi Moll  ...  Antonio  
Viola Davis  ...  Director George  
Paul Dano  ...  Simon Feck  
Falk Hentschel  ...  Bernhard  
Marc Blucas  ...  Rodney  
Lennie Loftin  ...  Braces  
Maggie Grace  ...  April Havens  
Rich Manley  ...  Danny  
Dale Dye  ...  Frank Jenkins  
Celia Weston  ...  Molly  
Gal Gadot  ...  Naomi  
Jack O'Connell  ...  Wilmer (as Jack A. O'Connell)                

Stats:
Format                           : AVI
Format/Info                      : Audio Video Interleave
File size                        : 1.37 GiB
Duration                         : 1h 52mn
Overall bit rate                 : 1 744 Kbps
Writing application              : VirtualDubMod 1.5.10.2 (build 2540/release)
Writing library                  : VirtualDubMod build 2540/release

Video
ID                               : 0
Format                           : MPEG-4 Visual
Format profile                   : Advanced Simple@L5
Format settings, BVOP            : Yes
Format settings, QPel            : No
Format settings, GMC             : No warppoints
Format settings, Matrix          : Default (H.263)
Muxing mode                      : Packed bitstream
Codec ID                         : XVID
Codec ID/Hint                    : XviD
Duration                         : 1h 52mn
Bit rate                         : 1 287 Kbps
Width                            : 624 pixels
Height                           : 256 pixels
Display aspect ratio             : 2.40:1
Frame rate                       : 25.000 fps
Color space                      : YUV
Chroma subsampling               : 4:2:0
Bit depth                        : 8 bits
Scan type                        : Progressive
Bits/(Pixel*Frame)               : 0.322
Stream size                      : 1.01 GiB (74%)
Writing library                  : XviD 1.2.1 (UTC 2008-12-04)

Audio
ID                               : 1
Format                           : AC-3
Format/Info                      : Audio Coding 3
Mode extension                   : CM (complete main)
Codec ID                         : 2000
Duration                         : 1h 52mn
Bit rate mode                    : Constant
Bit rate                         : 448 Kbps
Channel(s)                       : 6 channels
Channel positions                : Front: L C R, Side: L R, LFE
Sampling rate                    : 48.0 KHz
Bit depth                        : 16 bits
Stream size                      : 360 MiB (26%)
Alignment                        : Split accross interleaves
Interleave, duration             : 40 ms (1.00 video frame)
Interleave, preload duration     : 500 ms




Release notes:
This is the 113min R2 extended DVD which adds some more scenes, starting with the very first one.

Enjoy!

Looking for:
75TB+ Archives
DUTCH/FLEMiSH Archives
                                                                                                    
Greets: CRBS EPiSODE FiCO FLS iLS KLASSiGER LiPSYNC MADE NODLABS RUNNER TNAN       
   

                                                                    ASCII DONE BY XX^NFO 2oo9